<svg width="131.252" height="78.095" viewBox="0 0 34.727 20.663" xmlns="http://www.w3.org/2000/svg"><g style="stroke-width:2;stroke-dasharray:none"><g style="stroke:#4a4a4a;stroke-width:2;stroke-dasharray:none;stroke-opacity:1"><path style="fill:none;stroke:#4a4a4a;stroke-width:2;stroke-linecap:round;stroke-linejoin:round;stroke-dasharray:none;stroke-opacity:1" d="M32.805 50.882c.037 2.697 2.317 5.105 5.147 5.085 2.83-.02 5.142-2.315 5.136-5.012m1.743 7.747c1.743-2.245 3.113-4.835 3.148-7.735m-3.162-7.68c1.742 2.219 3.138 4.799 3.163 7.686m-17.336 7.759c-1.743-2.245-3.094-4.874-3.129-7.774m-5.88-.021c3.785 6.21 11.29 10.299 18.605 9.137 5.755-.873 10.59-4.722 14.122-9.162m-21.558-.03c.036-2.697 2.351-4.859 5.181-4.839 2.83.02 5.111 2.215 5.105 4.912m-12.413-7.676c-1.741 2.218-3.137 4.798-3.163 7.685m-5.875-.025c3.84-6.303 11.533-10.395 18.94-9.079 5.605.948 10.352 4.742 13.779 9.051" transform="translate(-20.635 -40.611)"/><path style="fill:#5ea796;fill-opacity:1;stroke:#4a4a4a;stroke-width:7.55906;stroke-linecap:round;stroke-linejoin:round;stroke-dasharray:none;stroke-opacity:1" d="M141.518 159.44c-7.849.006-15.789 1.548-22.918 4.845-3.77 2.958-5.892 7.528-8.245 11.604-5.156 9.576-5.646 21.419-1.067 31.312 2.037 4.814 4.952 9.194 7.966 13.432 9.513 3.41 19.624 6.074 29.812 4.874 7.098-.436 14.25-2.11 20.62-5.286 4.104-4.085 6.746-9.492 9.005-14.774 3.825-9.23 3.3-20.129-1.554-28.888-2.214-4.352-4.69-8.88-8.018-12.355-7.883-2.88-16.122-5.182-24.6-4.768l-1.001.003zm1.795 12.675c10.398-.285 20.332 7.981 21.363 18.42 1.438 12.213-10.027 23.875-22.285 22.857-10.972-.357-20.728-10.404-20.187-21.518-.148-10.973 10.478-19.992 21.109-19.759z" transform="matrix(.26458 0 0 .26458 -20.635 -40.611)"/></g><path style="fill:none;fill-rule:evenodd;stroke:#4a4a4a;stroke-width:2;stroke-linecap:butt;stroke-linejoin:miter;stroke-dasharray:none;stroke-opacity:1" d="m25.754 36.104 15.232-14.666" transform="translate(-16.117 -18.332)"/></g></svg>