<svg xmlns="http://www.w3.org/2000/svg" xml:space="preserve" width="20" height="24" style="shape-rendering:geometricPrecision;text-rendering:geometricPrecision;image-rendering:optimizeQuality;fill-rule:evenodd;clip-rule:evenodd" viewBox="0 0 30.57 36.69"><path d="m26.26 6.74 2.15-2.15 2.16 2.16-2.02 2.02c-.71-.74-1.47-1.42-2.29-2.03zM12.23 3.33V0h6.12v3.33c-2.2-.37-3.96-.36-6.11 0zm3.06 2.78C6.85 6.11 0 12.95 0 21.4c0 8.44 6.85 15.29 15.29 15.29s15.29-6.84 15.29-15.29c0-8.44-6.85-15.29-15.29-15.29zm0 27.52c-6.74 0-12.23-5.49-12.23-12.23S8.55 9.17 15.29 9.17s12.23 5.49 12.23 12.23-5.49 12.23-12.23 12.23z" style="fill:#fff"/><path d="m16.82 18.85-1.05-6.11h-.93l-1.07 6.11a3.04 3.04 0 0 0-1.53 2.63 3.06 3.06 0 1 0 6.12 0c0-1.13-.62-2.1-1.53-2.63z" style="fill:#5ea796"/></svg>