<?xml version="1.0" encoding="UTF-8"?>
<!DOCTYPE svg PUBLIC "-//W3C//DTD SVG 1.1//EN" "http://www.w3.org/Graphics/SVG/1.1/DTD/svg11.dtd">
<!-- Creator: CorelDRAW 2017 -->
<svg xmlns="http://www.w3.org/2000/svg" xml:space="preserve" width="5.2916mm" height="6.3499mm" version="1.1" style="shape-rendering:geometricPrecision; text-rendering:geometricPrecision; image-rendering:optimizeQuality; fill-rule:evenodd; clip-rule:evenodd"
viewBox="0 0 30.57 36.69"
 xmlns:xlink="http://www.w3.org/1999/xlink">
 <defs>
  <style type="text/css">
   <![CDATA[
    .fil1 {fill:#5EA796}
    .fil0 {fill:white}
   ]]>
  </style>
 </defs>
 <g>
  <path class="fil0" d="M26.26 6.74l2.15 -2.15 2.16 2.16 -2.02 2.02c-0.71,-0.74 -1.47,-1.42 -2.29,-2.03l0 0z"/>
  <path class="fil0" d="M12.23 3.33l0 -3.33 6.12 0 0 3.33c-2.2,-0.37 -3.96,-0.36 -6.11,0l-0 0z"/>
  <path class="fil0" d="M15.29 6.11c-8.44,0 -15.29,6.84 -15.29,15.29 0,8.44 6.85,15.29 15.29,15.29 8.44,0 15.29,-6.84 15.29,-15.29 0,-8.44 -6.85,-15.29 -15.29,-15.29zm0 27.52c-6.74,0 -12.23,-5.49 -12.23,-12.23 0,-6.74 5.49,-12.23 12.23,-12.23 6.74,0 12.23,5.49 12.23,12.23 0,6.74 -5.49,12.23 -12.23,12.23z"/>
  <path class="fil1" d="M16.82 18.85l-1.05 -6.11 -0.93 0 -1.07 6.11c-0.91,0.53 -1.53,1.5 -1.53,2.63 0,1.69 1.37,3.06 3.06,3.06 1.69,0 3.06,-1.37 3.06,-3.06 0,-1.13 -0.62,-2.1 -1.53,-2.63z"/>
 </g>
</svg>
