<svg xmlns="http://www.w3.org/2000/svg" width="64" height="64" fill-rule="evenodd" clip-rule="evenodd" image-rendering="optimizeQuality" shape-rendering="geometricPrecision" text-rendering="geometricPrecision" viewBox="0 0 800 800"><path fill="#5EA796" d="M543.74 423.97L256.25 423.97 256.25 376.04 543.74 376.04z"></path><path fill="#ffffff" d="M400.02 112.53c-158.78,0 -287.5,128.72 -287.5,287.5 0,158.78 128.72,287.5 287.5,287.5 158.78,0 287.5,-128.72 287.5,-287.5 0,-158.78 -128.72,-287.5 -287.5,-287.5zm0 47.89c132.08,0 239.56,107.48 239.56,239.56 0,132.08 -107.48,239.56 -239.56,239.56 -132.08,0 -239.56,-107.48 -239.56,-239.56 0,-132.07 107.48,-239.56 239.56,-239.56z"></path></svg>