<svg id="Layer_x0020_1" xmlns="http://www.w3.org/2000/svg" width="174.199" height="41.946" viewBox="0 0 174.199 41.946">
  <path id="Path_309" data-name="Path 309" d="M0,385.77H97.344v29.692H0Zm172.083,0H101.338v29.692h70.745Z" transform="translate(0 -373.516)" fill="#fefefe" fill-rule="evenodd"/>
  <path id="Path_310" data-name="Path 310" d="M257.627,564.645h13.537v-4.173h-8.686v-14.45h-4.852Zm-97.635-14.737h3.26c1.487,0,2.608.678,2.608,2.452,0,1.7-1.069,2.321-2.608,2.321h-3.26Zm-4.852,14.737h4.852v-6.208h3.991c4.1,0,6.73-1.8,6.73-6.416,0-4.408-3.26-6-6.73-6H155.14v18.623Zm21.9-14.737h3.86c1.356,0,2.452.626,2.452,2.008a1.985,1.985,0,0,1-2.243,2.191h-4.069v-4.2Zm-4.852,14.737h4.852v-6.782h3.678c2.3,0,2.582,1.93,2.712,3.808a9.724,9.724,0,0,0,.548,2.974h4.8c-.652-.73-.7-3.391-.782-4.2-.131-1.774-.756-3.964-2.713-4.46v-.052a4.752,4.752,0,0,0,2.921-4.669c0-3.756-3.26-5.243-6.521-5.243h-9.494v18.623Zm34.1-18.623h-4.851v11.216c0,2.4-.861,3.625-3.26,3.625s-3.26-1.226-3.26-3.625V546.021h-4.852V556.95c0,5.4,2.478,8.086,8.112,8.086s8.112-2.686,8.112-8.086Zm1.343,12.364c0,4.773,3.834,6.651,8.086,6.651,4.095,0,8.112-1.513,8.112-6.234,0-3.365-2.712-4.617-5.4-5.373-2.712-.756-5.4-.991-5.4-2.452,0-1.226,1.3-1.591,2.348-1.591,1.461,0,3.078.574,3,2.243h4.851c0-4.173-3.782-6-7.46-6-3.5,0-7.59,1.591-7.59,5.66,0,3.443,2.817,4.617,5.451,5.373,2.686.756,5.347,1.044,5.347,2.712,0,1.382-1.513,1.9-2.974,1.9-2.086,0-3.417-.7-3.521-2.9h-4.851Zm15.741,6.26h4.982l1.174-3.339h6.495l1.148,3.339h5.06l-6.964-18.623h-4.929Zm9.39-13.459h.052l2.06,6.521H230.65l2.113-6.521Zm39.979,13.459h4.852V546.021h-4.852Zm7.342,0h4.564V553.038h.052l6.468,11.607h4.982V546.021h-4.564V557.5h-.052l-6.469-11.476h-4.982Zm18.558,0h4.852v-5.738l1.982-2.086,5.008,7.825h6.025l-7.747-11.294,6.886-7.33h-6.025l-6.13,7.147v-7.147h-4.852v18.623Z" transform="translate(-150.212 -528.297)" fill="#2b2a29"/>
  <path id="Path_311" data-name="Path 311" d="M4212.084,0H4170.36V15.461h41.724Z" transform="translate(-4037.885)" fill="#5ea796" fill-rule="evenodd"/>
  <path id="Path_312" data-name="Path 312" d="M4299.272,94.026h1.991c.539,0,1.051.235,1.051.954a.959.959,0,0,1-1.051.94h-1.991Zm-2.572,7.881h4.742c2.116,0,3.844-.719,3.844-3.07a2.354,2.354,0,0,0-1.7-2.337,2.22,2.22,0,0,0,1.3-1.991c0-2.046-1.867-2.516-3.567-2.475H4296.7v9.872Zm2.572-4.328h2.06c.774,0,1.383.29,1.383,1.161,0,.816-.566,1.106-1.383,1.106h-2.06Zm6.975,4.328h8.005V99.695h-5.434v-1.88h4.839V95.823h-4.839V94.1h5.3v-2.06h-7.867Zm16.861-9.872h-8.461v2.212h2.945v7.66h2.571v-7.66h2.945Zm-1.583,9.872h2.641l.622-1.77h3.442l.609,1.77h2.682l-3.691-9.872h-2.613Zm4.978-7.135h.028l1.092,3.457h-2.24l1.121-3.457Z" transform="translate(-4160.212 -89.109)" fill="#fefefe"/>
</svg>
