<?xml version="1.0" encoding="UTF-8" standalone="no"?>
<svg
   xmlns:dc="http://purl.org/dc/elements/1.1/"
   xmlns:cc="http://creativecommons.org/ns#"
   xmlns:rdf="http://www.w3.org/1999/02/22-rdf-syntax-ns#"
   xmlns:svg="http://www.w3.org/2000/svg"
   xmlns="http://www.w3.org/2000/svg"
   xmlns:sodipodi="http://sodipodi.sourceforge.net/DTD/sodipodi-0.dtd"
   xmlns:inkscape="http://www.inkscape.org/namespaces/inkscape"
   width="13.64"
   height="16.5"
   version="1.1"
   id="svg6"
   sodipodi:docname="remote_url.svg"
   inkscape:export-filename="/home/filip/prusa/Prusa-Link-Web/src/assets/m1/remote_url.svg.png"
   inkscape:export-xdpi="96"
   inkscape:export-ydpi="96"
   inkscape:version="1.0.2 (e86c870879, 2021-01-15)">
  <metadata
     id="metadata12">
    <rdf:RDF>
      <cc:Work
         rdf:about="">
        <dc:format>image/svg+xml</dc:format>
        <dc:type
           rdf:resource="http://purl.org/dc/dcmitype/StillImage" />
        <dc:title></dc:title>
      </cc:Work>
    </rdf:RDF>
  </metadata>
  <defs
     id="defs10" />
  <sodipodi:namedview
     pagecolor="#ffffff"
     bordercolor="#666666"
     borderopacity="1"
     objecttolerance="10"
     gridtolerance="10"
     guidetolerance="10"
     inkscape:pageopacity="0"
     inkscape:pageshadow="2"
     inkscape:window-width="1920"
     inkscape:window-height="1007"
     id="namedview8"
     showgrid="false"
     inkscape:zoom="37.454545"
     inkscape:cx="6.8200002"
     inkscape:cy="8.25"
     inkscape:window-x="0"
     inkscape:window-y="0"
     inkscape:window-maximized="1"
     inkscape:current-layer="svg6" />
  <path
     d="M13.084 6.33a5.78 5.78 0 0 0-.225-1.655.4.4 0 0 0-.225-.238c-.159-.066-.834.371-.94.159h-.358c-.079-.04-.291-.318-.384-.291-.2.066.291.609.437.675.132-.093.53-.291.622-.026.172.5-.463 1.059-.781 1.351-.477.437-.4-.278-.715-.53-.172-.132-.172-.411-.344-.516a1.974 1.974 0 0 1-.437-.516l-.014.107c-.053.04-.185-.172-.2-.2 0 .185.3.477.4.622a7.159 7.159 0 0 0 .463.834c.106.106.543.569.649.569l.569-.265c.4.093-.953 2.013-1.086 2.251-.106.2.093.689.066.927-.013.265-.238.358-.437.5s-.172.463-.344.583c-.331.2-.556.848-1.02.848-.132 0-.715.225-.795 0a2.286 2.286 0 0 0-.225-.437c-.079-.159-.013-.318-.106-.45a2.361 2.361 0 0 1-.318-.424c0-.093.079-.4.172-.45.146-.079.026-.291.013-.411a.8.8 0 0 0-.331-.53c-.238-.185-.119-.331-.066-.609 0-.132-.079-.291-.252-.252-.358.106-.252-.278-.5-.265a2.4 2.4 0 0 0-.516.185c-.212.066-.437-.053-.649-.079a1.369 1.369 0 0 1-.942-1.847c.026-.119-.066-.344-.026-.437a2.5 2.5 0 0 1 .477-.636c.093-.093.225-.066.344-.146.185-.119.185-.344.358-.49a1.789 1.789 0 0 1 .925-.242c.172-.026.834-.172.94-.04 0 .026.119.384-.013.358.265.013.662.477.914.358.132-.053.079-.463.358-.265a1.537 1.537 0 0 0 1.059.04c.093-.079.146-.583.026-.636.066.066-.384.079-.424.066-.079-.026-.146.066-.265.013.079.04-.411-.225-.132-.424l-.344.066c-.079.066.04.119-.079.172-.185.093-.331-.331-.411-.384s-.636-.437-.477-.185l.49.49c-.026.013-.132-.185-.132-.04.04-.079.013.371-.066.212v-.172c0-.053-.146-.106-.172-.146a2.1 2.1 0 0 0-.4-.371 3.678 3.678 0 0 0-.516.066l-.119.2a1.648 1.648 0 0 0-.265.132l-.093.225a3.837 3.837 0 0 1-.479.186c.013-.053-.3-.106-.291-.2a1.881 1.881 0 0 0 .106-.543c-.026-.119.675.172.715-.146.013-.146.026-.3-.2-.331a2.041 2.041 0 0 0 .5-.225.813.813 0 0 1 .45-.278c.172 0 .132-.265.225-.384.079.026-.04.238.053.318 0-.066.278.04.3.026.066-.04.424-.013.371-.185s.026-.119.119-.159c-.013 0 .212-.384.252-.265-.026-.132-.265.053-.344.04-.185-.013-.106-.331-.04-.424S7.8 1.005 7.8 1.138c0 .212-.2.4-.146.662.066.411-.463-.106-.5-.066-.172.106-.318-.132-.225-.278s.318-.146.411-.3a1.9 1.9 0 0 1 .248-.335c.331-.278.424-.053.768-.026s.106.079.066.2.185.159.252.066A1.53 1.53 0 0 0 8.86.75c.053-.132.569-.119.212-.331A5.472 5.472 0 0 0 7.125 0c-.146 0-.252.159-.371.265-.225.185-.794.543-1.111.437s-1.02.411-1.139.424c-.04 0 0-.4.225-.424-.093.013.781-.437.755-.543a4.021 4.021 0 0 0-1.683.649c.04.053.185.053-.013.185-.119.066-.238.5-.344.5-.318.132-.331-.278-.689.252l-.556.225A6.286 6.286 0 0 0 .583 5.231c-.013.053.212.146.238.172.066.079.066.45.106.569a3.645 3.645 0 0 0 .463.742 1.538 1.538 0 0 1 .212.742c.066-.106.675.516.781.636.265.3.463.675.04.98-.132.093.212.7.026.861l-.225.053c-.225.132-.119.477.013.622a6.275 6.275 0 0 0 10.806-4.344zM9.138 2.95c0-.093-.119-.172-.238-.013-.079.106-.066.278-.119.344-.066.106.358.212.358.106.013-.172.463-.04.543-.013.159.04.4-.146.132-.238-.225-.079-.344-.172-.358-.331 0 0 .119-.106.066-.106-.132.013-.384.49-.384.252zm-1.6.967c-.026-.04.212-.066.252-.066s-.122.281-.255.069zM5.867 2.331c.079-.04.185-.04.2-.132l.053-.066c.026-.026-.04-.093-.066-.093l-.093.066-.04.013-.04.053v.026l-.053.066c-.053.053 0 .093.053.066zm.318-.344.066-.013-.027.076a.234.234 0 0 1 0 .212l-.093.053c-.04.04.159.053.159.053.013.026-.238.053-.185.106.066.079.516-.119.45-.106.146-.066.013-.079-.066-.119a1 1 0 0 0-.132-.424l.053-.066c-.132-.185-.225.225-.225.225z"
     fill="#ef7f1a"
     fill-rule="evenodd"
     id="path2"
     style="fill:#5ea796;fill-opacity:1" />
  <path
     d="M3.033 14.991H0v1.51h3.033zm.755 1.51v-1.51h2.277v-1.51h1.51v1.51h2.277v1.51H3.8zm6.82-1.51v1.51h3.032v-1.51z"
     fill="#585858"
     fill-rule="evenodd"
     id="path4" />
</svg>
