<?xml version="1.0" encoding="UTF-8"?>
<!DOCTYPE svg PUBLIC "-//W3C//DTD SVG 1.1//EN" "http://www.w3.org/Graphics/SVG/1.1/DTD/svg11.dtd">
<!-- Creator: CorelDRAW 2017 -->
<svg xmlns="http://www.w3.org/2000/svg" xml:space="preserve" width="13.2291mm" height="9.9218mm" version="1.1" style="shape-rendering:geometricPrecision; text-rendering:geometricPrecision; image-rendering:optimizeQuality; fill-rule:evenodd; clip-rule:evenodd"
viewBox="0 0 1028.03 771.02"
 xmlns:xlink="http://www.w3.org/1999/xlink">
 <defs>
  <style type="text/css">
   <![CDATA[
    .fil1 {fill:#5EA796}
    .fil0 {fill:black}
   ]]>
  </style>
 </defs>
 <g>
  <path class="fil0" d="M1028.03 514.01c0,93.56 -25.09,181.33 -68.97,256.96l-74.36 -42.97c36.46,-63.01 57.65,-135.96 57.65,-214.01 0,-236.57 -191.76,-428.33 -428.34,-428.33 -236.57,0 -428.33,191.76 -428.33,428.33 0,78.05 21.21,151 57.65,214.01l-74.36 42.97c-43.86,-75.65 -68.97,-163.42 -68.97,-256.96 0,-283.42 230.59,-514.01 514.01,-514.01 283.43,0 514.02,230.59 514.02,514.01z"/>
  <path class="fil0" d="M514.01 771.02c-55.43,0 -100.35,-44.92 -100.35,-100.35 0,-37.82 20.95,-70.76 51.82,-87.86l48.53 -240.14 48.54 240.08c30.92,17.1 51.82,50.03 51.82,87.86 0,55.47 -44.92,100.41 -100.36,100.41z"/>
  <path class="fil1" d="M541.77 156.87c-9.37,-0.78 -18.71,-1.11 -27.8,-1.11 -9.08,0 -18.46,0.39 -27.84,1.11l0 119.25c9.26,-1.06 18.59,-1.63 27.84,-1.63 9.26,0 18.59,0.51 27.8,1.63l0 -119.25z"/>
  <path class="fil1" d="M789.83 287.9c-12.08,-14.66 -25.27,-28.4 -39.32,-40.99l-80.97 84.35c14.52,12.08 27.72,25.87 39.32,40.99l80.97 -84.35z"/>
  <path class="fil1" d="M678.42 196.67c-16.58,-8.77 -33.84,-16.23 -51.4,-22.22l-43.86 110.22c17.86,5.36 35.13,12.81 51.4,22.22l43.86 -110.22z"/>
  <path class="fil1" d="M274.31 462.24c5.18,-18.63 12.33,-36.59 21.34,-53.54l-105.77 -45.65c-8.43,17.25 -15.59,35.21 -21.34,53.53l105.77 45.65z"/>
  <path class="fil1" d="M392.49 307.34c16.24,-9.47 33.45,-16.97 51.32,-22.41l-44.29 -110.04c-17.56,6.08 -34.77,13.61 -51.32,22.44l44.29 110.01z"/>
  <path class="fil1" d="M319.03 372.24c11.61,-15.17 24.85,-28.92 39.38,-40.99l-80.97 -84.35c-14.05,12.6 -27.28,26.34 -39.32,40.99l80.91 84.35z"/>
  <path class="fil1" d="M857.59 410.92c-6.04,-18.29 -13.45,-36.15 -22.1,-53.2l-105.12 47.37c9.29,16.87 16.71,34.69 22.15,53.2l105.07 -47.37z"/>
 </g>
</svg>
