<?xml version="1.0" encoding="UTF-8"?>
<!DOCTYPE svg PUBLIC "-//W3C//DTD SVG 1.1//EN" "http://www.w3.org/Graphics/SVG/1.1/DTD/svg11.dtd">
<!-- Creator: CorelDRAW X7 -->
<svg xmlns="http://www.w3.org/2000/svg" xml:space="preserve" width="6.35mm" height="6.35mm" version="1.1" style="shape-rendering:geometricPrecision; text-rendering:geometricPrecision; image-rendering:optimizeQuality; fill-rule:evenodd; clip-rule:evenodd"
viewBox="0 0 158 158"
 xmlns:xlink="http://www.w3.org/1999/xlink">
 <defs>
  <style type="text/css">
   <![CDATA[
    .fil0 {fill:white}
   ]]>
  </style>
 </defs>
 <g id="Layer_x0020_1">
  <metadata id="CorelCorpID_0Corel-Layer"/>
  <polygon id="iconmonstr-x-mark-11.svg" class="fil0" points="112,102 88,79 112,55 102,46 79,70 55,46 46,56 70,79 46,103 56,112 79,88 103,112 112,102 "/>
  <path id="iconmonstr-x-mark-11.svg_0" class="fil0" d="M79 0c-44,0 -79,35 -79,79 0,44 35,79 79,79 44,0 79,-35 79,-79 0,-44 -35,-79 -79,-79zm0 13c36,0 66,30 66,66 0,36 -30,66 -66,66 -36,0 -66,-30 -66,-66 0,-36 30,-66 66,-66z"/>
 </g>
</svg>
