<?xml version="1.0" encoding="UTF-8"?>
<!DOCTYPE svg PUBLIC "-//W3C//DTD SVG 1.1//EN" "http://www.w3.org/Graphics/SVG/1.1/DTD/svg11.dtd">
<!-- Creator: CorelDRAW 2017 -->
<svg xmlns="http://www.w3.org/2000/svg" xml:space="preserve" width="3.2335mm" height="3.8791mm" version="1.1" style="shape-rendering:geometricPrecision; text-rendering:geometricPrecision; image-rendering:optimizeQuality; fill-rule:evenodd; clip-rule:evenodd"
viewBox="0 0 35.63 42.74"
 xmlns:xlink="http://www.w3.org/1999/xlink">
 <defs>
  <style type="text/css">
   <![CDATA[
    .fil0 {fill:white}
   ]]>
  </style>
 </defs>
 <g id="Layer_x0020_1">
  <metadata id="CorelCorpID_0Corel-Layer"/>
  <polygon id="iconmonstr-trash-can-28.svg" class="fil0" points="21.28,3.56 14.17,3.56 14.17,5.36 21.28,5.36 "/>
  <path id="iconmonstr-trash-can-28.svg_0" class="fil0" d="M24.84 16.03c0,-0.99 -0.82,-1.81 -1.81,-1.81 -0.99,0 -1.81,0.82 -1.81,1.81l0 16.04c0,0.99 0.82,1.81 1.81,1.81 0.99,0 1.81,-0.82 1.81,-1.81l0 -16.04z"/>
  <path id="iconmonstr-trash-can-28.svg_1" class="fil0" d="M14.17 16.03c0,-0.99 -0.82,-1.81 -1.81,-1.81 -0.99,0 -1.81,0.82 -1.81,1.81l0 16.04c0,0.99 0.82,1.81 1.81,1.81 0.99,0 1.81,-0.82 1.81,-1.81l0 -16.04z"/>
  <path id="iconmonstr-trash-can-28.svg_2" class="fil0" d="M30.2 42.74l-24.9 0c-1.98,0 -3.56,-1.57 -3.56,-3.56l0 -30.26 -1.75 0 0 -3.56 10.67 0 0 -2.68c0,-1.46 1.22,-2.68 2.68,-2.68l8.92 0c1.46,0 2.68,1.17 2.68,2.68l0 2.68 10.67 0 0 3.56 -1.75 0 0 30.26c0,1.98 -1.57,3.56 -3.56,3.56l0 0 -0.12 0zm0 -33.82l-24.9 0 0 29.39c0,0.47 0.41,0.87 0.87,0.87l23.15 0c0.47,0 0.87,-0.41 0.87,-0.87l0 -29.39 0 0z"/>
 </g>
</svg>
