<svg xmlns="http://www.w3.org/2000/svg" fill-rule="evenodd" clip-rule="evenodd" image-rendering="optimizeQuality" shape-rendering="geometricPrecision" text-rendering="geometricPrecision" viewBox="0 0 24 24"><path fill="#FA6831" d="M8.667 12h2.5V8.667h1.667v3.332l2.5.001-3.333 3.333z"/><path fill="#313131" d="M12 4.5a6.243 6.243 0 0 0-6.232 5.91 4.582 4.582 0 0 0 .815 9.09h10.83a4.583 4.583 0 0 0 .815-9.09 6.243 6.243 0 0 0-6.232-5.91zm0 1.667c2.878 0 4.909 2.331 4.639 5.65 1.454-.038 3.694.626 3.694 3.1a2.92 2.92 0 0 1-2.916 2.916H6.587a2.92 2.92 0 0 1-2.916-2.916c0-2.331 2.066-3.194 3.694-3.1-.14-3.515 1.84-5.65 4.639-5.65z"/></svg>