<svg xmlns="http://www.w3.org/2000/svg" xml:space="preserve" width="37.796" height="37.771" style="shape-rendering:geometricPrecision;text-rendering:geometricPrecision;image-rendering:optimizeQuality;fill-rule:evenodd;clip-rule:evenodd" viewBox="0 0 169.49 169.38"><path d="M84.75 107.7c12.71 0 23.01-10.3 23.01-23.01s-10.3-23.01-23.01-23.01-23.01 10.3-23.01 23.01 10.3 23.01 23.01 23.01zM58.19 5.87c1.05 6.27 8.5 7.07 17.05 21.35 2.61 4.36 11.46 22.24 7.71 27.85-1.92-2.98-4.06-7.4-6.23-10.8-6.27-9.82-17.96-21.36-29.44-26.09-14.41-5.93-24.7 7.71-32.2 18.23-.76 1.07-3.03 4.59-3.62 5.82-4.66 9.65 6.46 6.62 14.71 7.01 11.83.57 33.23 7.58 37.07 15.78C47.27 61.96.01 49.03.01 84.42c0 7.11 1.32 21.58 5.34 26.43 9.78.58 13.03-22.36 50.14-25.75-3.19 4.41-25.82 12.28-36.78 35.81-2.28 4.89-2.72 9.3-.83 14.52 1.79 4.93 5.59 7.02 8.46 10.04 5.51 5.8 23.21 23.41 23.05 6.05-.09-9.01-.4-14.52 2.57-23.94 2.29-7.27 8.55-19.33 12.95-21.77-.19 8.06-10.41 28.63-.7 52.6 3.39 8.37 9.33 11.09 20.85 10.97 8.12-.09 22.31-.75 26.13-6.4-2.03-7.66-15.7-10.83-23.15-34.12l-2.59-11.26c-.09-5.63-.3-2.31.94-4.04 7.47 14.95 18.01 29.8 34.26 36.96 12.32 5.43 18.98-1 24.62-7.06 3.6-3.87 15.62-15.86 13.16-22.65-5.36-2.16-21.62-.45-31.17-3.48-6.82-2.17-18.93-8.24-21.56-13.38 19.12 4.03 32 9.63 53.04 1.06 14.1-5.74 11.51-28.13 8-40.91l-2.35-4.91c-3.36-4.79-11.65 8.91-21.87 15.67-3.84 2.54-8.32 4.69-13.28 6.37-4.06 1.37-11.64 3.73-15.14 2.04 2.78-2.44 11.81-6.16 21.44-14.25 3.87-3.25 11.96-13.77 15.13-20.65 9.83-21.29-24.91-38.81-30.11-38.11-2.45 9.95 2.76 35.87-15.63 52.91-.57-7.18 18.66-63.78-21-63.17-8.05.12-21.53.85-25.72 5.87z" style="fill:#fff"/><circle cx="84.75" cy="84.69" r="16.95" style="fill:#FA6831"/></svg>