<svg xmlns="http://www.w3.org/2000/svg" width="24" height="24" fill-rule="evenodd" clip-rule="evenodd" image-rendering="optimizeQuality" shape-rendering="geometricPrecision" text-rendering="geometricPrecision" viewBox="0 0 235.3 235.3"><path fill="#ffffff" d="M117.65 0c-64.97,0 -117.65,52.68 -117.65,117.65 0,64.97 52.68,117.65 117.65,117.65 64.97,0 117.65,-52.68 117.65,-117.65 0,-64.97 -52.68,-117.65 -117.65,-117.65zm0 19.61c54.04,0 98.03,43.99 98.03,98.03 0,54.04 -43.99,98.03 -98.03,98.03 -54.04,0 -98.03,-43.99 -98.03,-98.03 0,-54.04 43.99,-98.03 98.03,-98.03z"></path><path fill="#FA6831" d="M91.94 94.33l0 19.61 19.58 0 0 58.8 19.61 0 0 -78.4 -39.19 0zm41.64 -29.38c0,6.76 -5.49,12.26 -12.26,12.26 -6.76,0 -12.26,-5.49 -12.26,-12.26 0,-6.76 5.49,-12.26 12.26,-12.26 6.76,0 12.26,5.49 12.26,12.26z"></path></svg>