<svg xmlns="http://www.w3.org/2000/svg" viewBox="0 0 36.57 26.71"><g data-name="Group 154"><path fill="#fff" fill-rule="evenodd" d="M34.107 23.739v1.191h-7.144v-1.191zm0-2.723v1.275h-7.144v-1.275zm.766-2.723v1.275h-7.91v-1.275zm-.766-2.723v1.275h-7.144V15.57zm.766-2.637v1.191h-7.91v-1.19zm-.766-2.723v1.275h-7.144v-1.274zm0-2.723v1.276h-7.144V7.488zm0-2.723v1.275h-7.144V4.765zM21.177.003H18.03c-1.14 0-.011 1.872-1.785 1.872-2.044 0-1.539.1-2.533-.871-.449-.438-.655-1-1.212-1H1.44A1.49 1.49 0 0 0-.004 1.278v23.99a1.475 1.475 0 0 0 1.447 1.447h33.84a1.438 1.438 0 0 0 1.275-1.275V4.36c0-.6-.679-1.127-1.222-1.243-.412-.087-8.525-.04-9.834-.032s-1.46-.407-2.361-1.3L21.95.506c-.219-.224-.385-.488-.787-.488z"/><path fill="#FA6831" d="M3.567 4.644h18.58v18.58H3.567z" data-name="Rectangle 336"/><path fill="#2b2a29" d="M19.077 12.789c-.084-2.86-2.841-4.487-5.418-4.487-3.607 0-5.917 2.742-5.917 6.181s2.31 6.181 5.917 6.181c3.006 0 5.235-1.778 5.418-4.854h-3.09a2.185 2.185 0 0 1-2.394 2.192c-1.994 0-2.757-1.745-2.757-3.523s.766-3.523 2.757-3.523a2.152 2.152 0 0 1 2.394 1.829h3.09z" data-name="Path 766"/><path fill="#fefefe" d="M18.527 12.239c-.084-2.86-2.841-4.487-5.418-4.487-3.607 0-5.917 2.742-5.917 6.181s2.31 6.181 5.917 6.181c3.006 0 5.235-1.778 5.418-4.854h-3.09a2.185 2.185 0 0 1-2.394 2.192c-1.994 0-2.757-1.745-2.757-3.523s.766-3.523 2.757-3.523a2.152 2.152 0 0 1 2.394 1.829h3.09z" data-name="Path 767"/></g></svg>