<?xml version="1.0" encoding="UTF-8"?>
<!DOCTYPE svg PUBLIC "-//W3C//DTD SVG 1.1//EN" "http://www.w3.org/Graphics/SVG/1.1/DTD/svg11.dtd">
<!-- Creator: CorelDRAW 2017 -->
<svg xmlns="http://www.w3.org/2000/svg" xml:space="preserve" width="6.35mm" height="6.35mm" version="1.1" style="shape-rendering:geometricPrecision; text-rendering:geometricPrecision; image-rendering:optimizeQuality; fill-rule:evenodd; clip-rule:evenodd"
viewBox="0 0 115.01 115.01"
 xmlns:xlink="http://www.w3.org/1999/xlink">
 <defs>
  <style type="text/css">
   <![CDATA[
    .fil1 {fill:#EC691F}
    .fil0 {fill:black}
    .fil2 {fill:white}
   ]]>
  </style>
 </defs>
 <rect class="fil0" x="-2219.26" y="-4346.16" width="3803.52" height="5379.27"/>
 <g>
  <metadata/>
  <polygon class="fil1" points="86.26,62.3 28.75,62.3 28.75,52.71 86.26,52.71 "/>
  <path class="fil2" d="M57.51 0c-31.76,0 -57.51,25.75 -57.51,57.51 0,31.76 25.75,57.51 57.51,57.51 31.76,0 57.51,-25.75 57.51,-57.51 0,-31.76 -25.75,-57.51 -57.51,-57.51zm0 9.58c26.42,0 47.92,21.5 47.92,47.92 0,26.42 -21.5,47.92 -47.92,47.92 -26.42,0 -47.92,-21.5 -47.92,-47.92 0,-26.42 21.5,-47.92 47.92,-47.92z"/>
 </g>
</svg>
