<?xml version="1.0" encoding="UTF-8"?>
<!DOCTYPE svg PUBLIC "-//W3C//DTD SVG 1.1//EN" "http://www.w3.org/Graphics/SVG/1.1/DTD/svg11.dtd">
<!-- Creator: CorelDRAW 2017 -->
<svg xmlns="http://www.w3.org/2000/svg" xml:space="preserve" width="6.35mm" height="6.35mm" version="1.1" style="shape-rendering:geometricPrecision; text-rendering:geometricPrecision; image-rendering:optimizeQuality; fill-rule:evenodd; clip-rule:evenodd"
viewBox="0 0 27.31 27.31"
 xmlns:xlink="http://www.w3.org/1999/xlink">
 <defs>
  <style type="text/css">
   <![CDATA[
    .fil1 {fill:#EC691F}
    .fil0 {fill:black}
    .fil2 {fill:white}
   ]]>
  </style>
 </defs>
 <rect class="fil0" x="-769.12" y="-969.1" width="903.24" height="1277.45"/>
 <g>
  <polygon class="fil1" points="20.48,14.79 14.79,14.79 14.79,20.48 12.52,20.48 12.52,14.79 6.83,14.79 6.83,12.52 12.52,12.52 12.52,6.83 14.79,6.83 14.79,12.52 20.48,12.52 "/>
  <path class="fil2" d="M13.66 0c-7.54,0 -13.66,6.11 -13.66,13.66 0,7.54 6.11,13.66 13.66,13.66 7.54,0 13.66,-6.11 13.66,-13.66 0,-7.54 -6.11,-13.66 -13.66,-13.66zm0 2.28c6.27,0 11.38,5.11 11.38,11.38 0,6.27 -5.11,11.38 -11.38,11.38 -6.27,0 -11.38,-5.11 -11.38,-11.38 0,-6.27 5.11,-11.38 11.38,-11.38z"/>
 </g>
</svg>
