<svg xmlns="http://www.w3.org/2000/svg" width="64" height="64" fill-rule="evenodd" clip-rule="evenodd" image-rendering="optimizeQuality" shape-rendering="geometricPrecision" text-rendering="geometricPrecision" viewBox="0 0 571.4 571.4"><path fill="#ffffff" d="M285.7 0c-157.78,0 -285.7,127.93 -285.7,285.7 0,157.78 127.93,285.7 285.7,285.7 157.78,0 285.7,-127.93 285.7,-285.7 0,-157.78 -127.92,-285.7 -285.7,-285.7zm0 47.63c131.23,0 238.07,106.84 238.07,238.07 0,131.23 -106.84,238.07 -238.07,238.07 -131.23,0 -238.07,-106.84 -238.07,-238.07 0,-131.23 106.84,-238.07 238.07,-238.07z"></path><path fill="#ffffff" d="M166.67 166.66L404.75 166.66 404.75 404.73 166.67 404.73z"></path></svg>