<svg xmlns="http://www.w3.org/2000/svg" width="64" height="64" fill-rule="evenodd" clip-rule="evenodd" image-rendering="optimizeQuality" shape-rendering="geometricPrecision" text-rendering="geometricPrecision" viewBox="0 0 307.69 307.69"><path fill="#ffffff" d="M153.84 0c-84.96,0 -153.84,68.89 -153.84,153.84 0,84.96 68.89,153.84 153.84,153.84 84.96,0 153.84,-68.89 153.84,-153.84 0,-84.96 -68.88,-153.84 -153.84,-153.84zm0 25.65c70.67,0 128.19,57.53 128.19,128.19 0,70.67 -57.53,128.19 -128.19,128.19 -70.67,0 -128.19,-57.53 -128.19,-128.19 0,-70.67 57.53,-128.19 128.19,-128.19z"></path><path fill="#ffffff" d="M106.81 78.62L106.81 229.06 242.17 156z"></path></svg>