<svg xmlns="http://www.w3.org/2000/svg" width="64" height="64" fill-rule="evenodd" clip-rule="evenodd" image-rendering="optimizeQuality" shape-rendering="geometricPrecision" text-rendering="geometricPrecision" viewBox="0 0 3998.88 3998.88"><path fill="#ffffff" d="M2665.63 1166.09l-499.45 0 0 1666.18 499.45 0 0 -1666.18zm-832.76 1666.18l-500.01 0 0 -1666.18 500.01 0 0 1666.18z"></path><path fill="#ffffff" d="M1999.53 0c-1104.19,0 -1999.47,895.26 -1999.47,1999.47 0,1104.19 895.28,1999.47 1999.47,1999.47 1104.19,0 1999.47,-895.28 1999.47,-1999.47 0,-1104.21 -895.28,-1999.47 -1999.47,-1999.47zm0 333.35c918.42,0 1666.12,747.68 1666.12,1666.12 0,918.42 -747.7,1666.12 -1666.12,1666.12 -918.42,0 -1666.12,-747.7 -1666.12,-1666.12 0,-918.44 747.7,-1666.12 1666.12,-1666.12z"></path></svg>