<svg xmlns="http://www.w3.org/2000/svg" width="64" height="64" fill-rule="evenodd" clip-rule="evenodd" image-rendering="optimizeQuality" shape-rendering="geometricPrecision" text-rendering="geometricPrecision" viewBox="0 0 235.29 235.29"><path fill="#ffffff" d="M158.22 145.9L128.64 117.65 158.22 88.07 145.9 77.08 117.65 106.65 88.07 77.08 77.08 89.4 106.65 117.65 77.08 147.22 89.4 158.22 117.65 128.64 147.22 158.22z"></path><path fill="#ffffff" d="M117.65 33.09c-47.02,0 -84.56,37.54 -84.56,84.56 0,47.02 37.54,84.56 84.56,84.56 47.02,0 84.56,-37.54 84.56,-84.56 0,-47.02 -37.54,-84.56 -84.56,-84.56zm0 13.84c38.49,0 70.72,32.04 70.72,70.72 0,38.49 -32.04,70.72 -70.72,70.72 -38.49,0 -70.72,-32.04 -70.72,-70.72 0,-38.49 32.04,-70.72 70.72,-70.72z"></path></svg>