<?xml version="1.0" encoding="UTF-8"?>
<!DOCTYPE svg PUBLIC "-//W3C//DTD SVG 1.1//EN" "http://www.w3.org/Graphics/SVG/1.1/DTD/svg11.dtd">
<!-- Creator: CorelDRAW 2017 -->
<svg xmlns="http://www.w3.org/2000/svg" xml:space="preserve" width="105.833mm" height="18.3444mm" version="1.1" style="shape-rendering:geometricPrecision; text-rendering:geometricPrecision; image-rendering:optimizeQuality; fill-rule:evenodd; clip-rule:evenodd"
viewBox="0 0 10583.32 1834.44"
 xmlns:xlink="http://www.w3.org/1999/xlink">
 <defs>
  <style type="text/css">
   <![CDATA[
    .fil0 {fill:#FEFEFE}
    .fil2 {fill:#FA6831}
    .fil3 {fill:#FEFEFE;fill-rule:nonzero}
    .fil1 {fill:#2B2A29;fill-rule:nonzero}
   ]]>
  </style>
 </defs>
 <g>
  <rect class="fil0" y="535.92" width="4257.14" height="1298.52"/>
  <path class="fil1" d="M427.69 945.08l142.58 0c65.02,0 114.07,29.65 114.07,107.22 0,74.14 -46.76,101.52 -114.07,101.52l-142.58 0 0 -208.74zm-212.17 644.48l212.17 0 0 -271.48 174.52 0c179.09,0 294.3,-78.71 294.3,-280.61 0,-192.77 -142.59,-262.36 -294.3,-262.36l-386.69 0 0 814.45z"/>
  <path class="fil1" d="M1173.13 945.08l168.82 0c59.32,0 107.22,27.37 107.22,87.83 0,62.74 -34.22,95.82 -98.09,95.82l-177.95 0 0 -183.65zm-212.17 644.48l212.17 0 0 -296.58 160.84 0c100.38,0 112.92,84.41 118.63,166.54 3.42,23.96 5.7,101.52 23.95,130.04l209.89 0c-28.52,-31.94 -30.8,-148.29 -34.22,-183.65 -5.71,-77.57 -33.08,-173.38 -118.64,-195.06l0 -2.28c86.7,-33.08 127.76,-116.35 127.76,-204.18 0,-164.26 -142.58,-229.28 -285.17,-229.28l-415.21 0 0 814.45z"/>
  <path class="fil1" d="M2452.4 775.11l-212.16 0 0 490.5c0,104.94 -37.65,158.55 -142.59,158.55 -104.94,0 -142.58,-53.61 -142.58,-158.55l0 -490.5 -212.17 0 0 477.95c0,236.12 108.36,353.61 354.75,353.61 246.39,0 354.75,-117.49 354.75,-353.61l0 -477.95z"/>
  <path class="fil1" d="M2511.15 1315.8c0,208.74 167.68,290.87 353.61,290.87 179.08,0 354.75,-66.16 354.75,-272.62 0,-147.15 -118.63,-201.9 -236.12,-234.98 -118.63,-33.08 -236.12,-43.35 -236.12,-107.23 0,-53.61 57.03,-69.58 102.66,-69.58 63.88,0 134.6,25.1 131.18,98.1l212.16 0c0,-182.51 -165.4,-262.36 -326.23,-262.36 -152.85,0 -331.94,69.59 -331.94,247.53 0,150.57 123.19,201.9 238.4,234.98 117.49,33.08 233.84,45.63 233.84,118.63 0,60.46 -66.16,83.27 -130.04,83.27 -91.25,0 -149.43,-30.8 -153.99,-126.61l-212.16 0z"/>
  <path class="fil1" d="M3199.54 1589.56l217.87 0 51.33 -146.01 284.03 0 50.19 146.01 221.3 0 -304.57 -814.45 -215.58 0 -304.57 814.45zm410.65 -588.59l2.28 0 90.11 285.17 -184.79 0 92.4 -285.17z"/>
  <rect class="fil0" x="4431.78" y="535.92" width="6058.96" height="1298.52"/>
  <path class="fil1" d="M5450.42 1065.99c-5.7,-196.2 -195.05,-307.99 -371.86,-307.99 -247.53,0 -406.08,188.22 -406.08,424.34 0,236.12 158.55,424.33 406.08,424.33 206.46,0 359.31,-122.05 371.86,-333.08l-212.16 0c-7.99,94.68 -63.88,150.57 -164.26,150.57 -136.88,0 -189.35,-119.77 -189.35,-241.82 0,-122.06 52.47,-241.83 189.35,-241.83 90.11,0 151.71,43.35 164.26,125.48l212.16 0z"/>
  <path class="fil1" d="M5708.79 1182.34c0,-122.06 52.47,-241.83 189.35,-241.83 136.89,0 189.36,119.77 189.36,241.83 0,122.05 -52.47,241.82 -189.36,241.82 -136.88,0 -189.35,-119.77 -189.35,-241.82zm-212.16 0c0,236.12 146,424.33 401.51,424.33 255.52,0 401.52,-188.21 401.52,-424.33 0,-236.12 -146,-424.34 -401.52,-424.34 -255.51,0 -401.51,188.22 -401.51,424.34z"/>
  <polygon class="fil1" points="6376.66,1589.56 6576.28,1589.56 6576.28,1081.96 6578.56,1081.96 6861.45,1589.56 7079.32,1589.56 7079.32,775.11 6879.7,775.11 6879.7,1277.01 6877.42,1277.01 6594.53,775.11 6376.66,775.11 "/>
  <polygon class="fil1" points="7185.97,1589.56 7385.59,1589.56 7385.59,1081.96 7387.87,1081.96 7670.76,1589.56 7888.63,1589.56 7888.63,775.11 7689.01,775.11 7689.01,1277.01 7686.73,1277.01 7403.84,775.11 7185.97,775.11 "/>
  <polygon class="fil1" points="7997.56,1589.56 8658.02,1589.56 8658.02,1407.05 8209.73,1407.05 8209.73,1251.92 8608.97,1251.92 8608.97,1087.66 8209.73,1087.66 8209.73,945.08 8646.61,945.08 8646.61,775.11 7997.56,775.11 "/>
  <path class="fil1" d="M9495.85 1065.99c-5.7,-196.2 -195.05,-307.99 -371.86,-307.99 -247.53,0 -406.08,188.22 -406.08,424.34 0,236.12 158.55,424.33 406.08,424.33 206.46,0 359.31,-122.05 371.86,-333.08l-212.16 0c-7.99,94.68 -63.88,150.57 -164.26,150.57 -136.88,0 -189.35,-119.77 -189.35,-241.82 0,-122.06 52.47,-241.83 189.35,-241.83 90.11,0 151.71,43.35 164.26,125.48l212.16 0z"/>
  <polygon class="fil1" points="10218.48,775.11 9520.38,775.11 9520.38,957.62 9763.35,957.62 9763.35,1589.56 9975.51,1589.56 9975.51,957.62 10218.48,957.62 "/>
  <rect class="fil2" x="8318.67" width="2264.66" height="676.14"/>
  <polygon class="fil3" points="8471.86,559.69 8785.68,559.69 8785.68,462.94 8584.33,462.94 8584.33,127.96 8471.86,127.96 "/>
  <path class="fil3" d="M8918.4 343.82c0,-64.7 27.82,-128.19 100.38,-128.19 72.56,0 100.37,63.49 100.37,128.19 0,64.7 -27.81,128.19 -100.37,128.19 -72.56,0 -100.38,-63.49 -100.38,-128.19zm-112.47 0c0,125.17 77.4,224.94 212.85,224.94 135.44,0 212.84,-99.77 212.84,-224.94 0,-125.16 -77.4,-224.93 -212.84,-224.93 -135.45,0 -212.85,99.77 -212.85,224.93z"/>
  <path class="fil3" d="M9672.72 282.15c-3.02,-104.01 -103.4,-163.26 -197.12,-163.26 -131.21,0 -215.26,99.77 -215.26,224.93 0,125.17 84.05,224.94 215.26,224.94 109.44,0 190.47,-64.7 197.12,-176.56l-112.47 0c-4.23,50.18 -33.86,79.81 -87.07,79.81 -72.56,0 -100.38,-63.49 -100.38,-128.19 0,-64.7 27.82,-128.19 100.38,-128.19 47.77,0 80.42,22.98 87.07,66.52l112.47 0z"/>
  <path class="fil3" d="M9669.39 559.69l115.49 0 27.21 -77.4 150.56 0 26.61 77.4 117.3 0 -161.44 -431.73 -114.29 0 -161.44 431.73zm217.68 -312.01l1.21 0 47.77 151.17 -97.96 0 48.98 -151.17z"/>
  <polygon class="fil3" points="10120.17,559.69 10433.99,559.69 10433.99,462.94 10232.64,462.94 10232.64,127.96 10120.17,127.96 "/>
 </g>
</svg>
