<?xml version="1.0" encoding="UTF-8"?>
<!DOCTYPE svg PUBLIC "-//W3C//DTD SVG 1.1//EN" "http://www.w3.org/Graphics/SVG/1.1/DTD/svg11.dtd">
<!-- Creator: CorelDRAW 2017 -->
<svg xmlns="http://www.w3.org/2000/svg" xml:space="preserve" width="75.2565mm" height="12.9852mm" version="1.1" style="shape-rendering:geometricPrecision; text-rendering:geometricPrecision; image-rendering:optimizeQuality; fill-rule:evenodd; clip-rule:evenodd"
viewBox="0 0 5351.38 923.36"
 xmlns:xlink="http://www.w3.org/1999/xlink">
 <defs>
  <style type="text/css">
   <![CDATA[
    .fil0 {fill:#FEFEFE}
    .fil1 {fill:#2B2A29;fill-rule:nonzero}
   ]]>
  </style>
 </defs>
 <g id="Layer_x0020_1">
  <metadata id="CorelCorpID_0Corel-Layer"/>
  <g id="_1905460437312">
   <g>
    <path class="fil0" d="M-0 0l3027.19 0 0 923.36 -3027.19 0 0 -923.36zm304.12 290.95l101.39 0c46.23,0 81.11,21.08 81.11,76.24 0,52.72 -33.25,72.19 -81.11,72.19l-101.39 0 0 -148.43zm-150.87 458.28l150.87 0 0 -193.05 124.1 0c127.35,0 209.27,-55.97 209.27,-199.54 0,-137.08 -101.39,-186.56 -209.27,-186.56l-274.97 0 0 579.14zm680.94 -458.28l120.05 0c42.18,0 76.24,19.46 76.24,62.45 0,44.61 -24.33,68.14 -69.75,68.14l-126.54 0 0 -130.59zm-150.87 458.28l150.87 0 0 -210.89 114.37 0c71.38,0 80.3,60.02 84.36,118.42 2.43,17.04 4.05,72.19 17.03,92.47l149.25 0c-20.28,-22.71 -21.9,-105.45 -24.33,-130.59 -4.06,-55.16 -23.52,-123.29 -84.36,-138.7l0 -1.62c61.65,-23.52 90.85,-82.73 90.85,-145.19 0,-116.8 -101.39,-163.04 -202.78,-163.04l-295.25 0 0 579.14zm1060.54 -579.14l-150.86 0 0 348.79c0,74.62 -26.77,112.74 -101.39,112.74 -74.62,0 -101.39,-38.12 -101.39,-112.74l0 -348.79 -150.87 0 0 339.86c0,167.9 77.05,251.45 252.26,251.45 175.2,0 252.26,-83.55 252.26,-251.45l0 -339.86zm41.78 384.48c0,148.43 119.23,206.83 251.45,206.83 127.34,0 252.26,-47.05 252.26,-193.86 0,-104.64 -84.36,-143.57 -167.9,-167.09 -84.36,-23.52 -167.9,-30.83 -167.9,-76.25 0,-38.12 40.55,-49.48 73,-49.48 45.42,0 95.71,17.85 93.28,69.76l150.86 0c0,-129.78 -117.61,-186.56 -231.98,-186.56 -108.69,0 -236.04,49.48 -236.04,176.02 0,107.07 87.6,143.57 169.52,167.09 83.55,23.52 166.28,32.45 166.28,84.36 0,42.99 -47.05,59.21 -92.47,59.21 -64.89,0 -106.26,-21.9 -109.5,-90.03l-150.86 0zm489.5 194.67l154.92 0 36.5 -103.83 201.97 0 35.69 103.83 157.36 0 -216.58 -579.14 -153.3 0 -216.58 579.14zm292.01 -418.54l1.62 0 64.08 202.78 -131.4 0 65.7 -202.78z"/>
    <path class="fil1" d="M304.12 290.95l101.39 0c46.23,0 81.11,21.08 81.11,76.24 0,52.72 -33.25,72.19 -81.11,72.19l-101.39 0 0 -148.43zm-150.87 458.28l150.87 0 0 -193.05 124.1 0c127.35,0 209.27,-55.97 209.27,-199.54 0,-137.08 -101.39,-186.56 -209.27,-186.56l-274.97 0 0 579.14zm680.94 -458.28l120.05 0c42.18,0 76.24,19.46 76.24,62.45 0,44.61 -24.33,68.14 -69.75,68.14l-126.54 0 0 -130.59zm-150.87 458.28l150.87 0 0 -210.89 114.37 0c71.38,0 80.3,60.02 84.36,118.42 2.43,17.04 4.05,72.19 17.03,92.47l149.25 0c-20.28,-22.71 -21.9,-105.45 -24.33,-130.59 -4.06,-55.16 -23.52,-123.29 -84.36,-138.7l0 -1.62c61.65,-23.52 90.85,-82.73 90.85,-145.19 0,-116.8 -101.39,-163.04 -202.78,-163.04l-295.25 0 0 579.14zm1060.54 -579.14l-150.86 0 0 348.79c0,74.62 -26.77,112.74 -101.39,112.74 -74.62,0 -101.39,-38.12 -101.39,-112.74l0 -348.79 -150.87 0 0 339.86c0,167.9 77.05,251.45 252.26,251.45 175.2,0 252.26,-83.55 252.26,-251.45l0 -339.86zm41.78 384.48c0,148.43 119.23,206.83 251.45,206.83 127.34,0 252.26,-47.05 252.26,-193.86 0,-104.64 -84.36,-143.57 -167.9,-167.09 -84.36,-23.52 -167.9,-30.83 -167.9,-76.25 0,-38.12 40.55,-49.48 73,-49.48 45.42,0 95.71,17.85 93.28,69.76l150.86 0c0,-129.78 -117.61,-186.56 -231.98,-186.56 -108.69,0 -236.04,49.48 -236.04,176.02 0,107.07 87.6,143.57 169.52,167.09 83.55,23.52 166.28,32.45 166.28,84.36 0,42.99 -47.05,59.21 -92.47,59.21 -64.89,0 -106.26,-21.9 -109.5,-90.03l-150.86 0zm489.5 194.67l154.92 0 36.5 -103.83 201.97 0 35.69 103.83 157.36 0 -216.58 -579.14 -153.3 0 -216.58 579.14zm292.01 -418.54l1.62 0 64.08 202.78 -131.4 0 65.7 -202.78z"/>
   </g>
   <g>
    <path class="fil0" d="M5351.38 0l-2200.01 0 0 923.36 2200.01 0 0 -923.36zm-2011.01 749.23l420.98 0 0 -129.78 -270.11 0 0 -449.36 -150.87 0 0 579.14zm470.05 0l150.87 0 0 -579.14 -150.87 0 0 579.14zm228.33 0l141.95 0 0 -360.95 1.62 0 201.16 360.95 154.92 0 0 -579.14 -141.95 0 0 356.89 -1.62 0 -201.16 -356.89 -154.92 0 0 579.14zm577.11 0l150.87 0 0 -178.45 61.64 -64.89 155.73 243.33 187.37 0 -240.9 -351.21 214.14 -227.93 -187.37 0 -190.61 222.25 0 -222.25 -150.87 0 0 579.14z"/>
    <path class="fil1" d="M3340.38 749.23l420.98 0 0 -129.78 -270.11 0 0 -449.36 -150.87 0 0 579.14zm470.05 0l150.87 0 0 -579.14 -150.87 0 0 579.14zm228.33 0l141.95 0 0 -360.95 1.62 0 201.16 360.95 154.92 0 0 -579.14 -141.95 0 0 356.89 -1.62 0 -201.16 -356.89 -154.92 0 0 579.14zm577.11 0l150.87 0 0 -178.45 61.64 -64.89 155.73 243.33 187.37 0 -240.9 -351.21 214.14 -227.93 -187.37 0 -190.61 222.25 0 -222.25 -150.87 0 0 579.14z"/>
   </g>
  </g>
 </g>
</svg>
