<?xml version="1.0" encoding="UTF-8" standalone="no"?>
<!-- Creator: CorelDRAW 2017 -->

<svg
   xmlns:dc="http://purl.org/dc/elements/1.1/"
   xmlns:cc="http://creativecommons.org/ns#"
   xmlns:rdf="http://www.w3.org/1999/02/22-rdf-syntax-ns#"
   xmlns:svg="http://www.w3.org/2000/svg"
   xmlns="http://www.w3.org/2000/svg"
   xmlns:sodipodi="http://sodipodi.sourceforge.net/DTD/sodipodi-0.dtd"
   xmlns:inkscape="http://www.inkscape.org/namespaces/inkscape"
   xml:space="preserve"
   width="10.1601mm"
   height="10.1604mm"
   version="1.1"
   style="shape-rendering:geometricPrecision; text-rendering:geometricPrecision; image-rendering:optimizeQuality; fill-rule:evenodd; clip-rule:evenodd"
   viewBox="0 0 67.83 67.83"
   id="svg3803"
   sodipodi:docname="quality_medium.svg"
   inkscape:version="0.92.3 (2405546, 2018-03-11)"><metadata
   id="metadata3807"><rdf:RDF><cc:Work
       rdf:about=""><dc:format>image/svg+xml</dc:format><dc:type
         rdf:resource="http://purl.org/dc/dcmitype/StillImage" /></cc:Work></rdf:RDF></metadata><sodipodi:namedview
   pagecolor="#ffffff"
   bordercolor="#666666"
   borderopacity="1"
   objecttolerance="10"
   gridtolerance="10"
   guidetolerance="10"
   inkscape:pageopacity="0"
   inkscape:pageshadow="2"
   inkscape:window-width="1920"
   inkscape:window-height="996"
   id="namedview3805"
   showgrid="false"
   inkscape:zoom="21.223122"
   inkscape:cx="19.200189"
   inkscape:cy="19.200757"
   inkscape:window-x="0"
   inkscape:window-y="28"
   inkscape:window-maximized="1"
   inkscape:current-layer="svg3803" />
 <defs
   id="defs3797">
  <style
   type="text/css"
   id="style3795">
   <![CDATA[
    .fil0 {fill:#2B2A29}
   ]]>
  </style>
 </defs>
 <g
   id="Značky_x0020_a_x0020_spadávky">
  <metadata
   id="CorelCorpID_0Corel-Layer" />
  <polygon
   class="fil0"
   points="-0,56.53 11.3,56.53 11.3,45.22 22.61,45.22 22.61,33.92 33.91,33.92 33.91,22.61 45.22,22.61 45.22,11.31 56.52,11.31 56.52,0 67.83,0 67.82,67.83 -0,67.83 "
   id="polygon3800" />
 </g>
<path
   style="fill:#ffffff;stroke-width:0.04711842"
   d="M 0.01356783,35.197461 V 32.016967 H 3.2176205 6.4216731 v -3.204052 -3.204053 h 3.2040527 3.2040522 v -3.180164 -3.180164 l 3.192273,-0.01211 3.192273,-0.01211 0.01211,-3.192273 0.01211,-3.192273 h 3.180164 3.180165 V 9.6357171 6.4316645 h 3.204052 3.204053 V 3.2276119 0.02355921 h 3.180493 3.180494 V 19.200757 38.377954 H 19.190765 0.01356783 Z"
   id="path3809"
   inkscape:connector-curvature="0"
   transform="matrix(1.7663888,0,0,1.7663888,0,-0.00100063)" /></svg>