<?xml version="1.0" encoding="UTF-8"?>
<!DOCTYPE svg PUBLIC "-//W3C//DTD SVG 1.1//EN" "http://www.w3.org/Graphics/SVG/1.1/DTD/svg11.dtd">
<!-- Creator: CorelDRAW 2017 -->
<svg xmlns="http://www.w3.org/2000/svg" xml:space="preserve" width="10.0314mm" height="7.4479mm" version="1.1" style="shape-rendering:geometricPrecision; text-rendering:geometricPrecision; image-rendering:optimizeQuality; fill-rule:evenodd; clip-rule:evenodd"
viewBox="0 0 76.48 56.79"
 xmlns:xlink="http://www.w3.org/1999/xlink">
 <defs>
  <style type="text/css">
   <![CDATA[
    .fil1 {fill:#EC691F}
    .fil0 {fill:white}
   ]]>
  </style>
 </defs>
 <g>
  <path class="fil0" d="M53.15 4.02c0,0 -7.83,-1.36 -10.48,-1.83 -5.63,-0.96 -8.39,-0.62 -13.26,2.09l-26.4 15.24c-2.83,1.69 -3.82,5.19 -2.31,8.03 4.96,8.84 10.03,17.62 15.21,26.34 1.71,2.74 5.35,3.74 8.18,2.13l26.42 -15.25c5.3,-3.09 6.73,-5.93 8.82,-11.86 0.91,-2.58 3.23,-8.61 3.23,-8.61l6.96 -4.02 -3.01 -5.21 -8.81 5.08c-2.28,6.42 -4.62,16.17 -10.55,19.61l-26.07 15.05 -15.05 -26.07 26.07 -15.05c6.27,-3.58 15.18,-0.68 22.22,0.62l8.81 -5.08 -3.01 -5.21 -6.96 4.02z"/>
  <path class="fil1" d="M52.83 26.02l-44.58 -0.01 13.29 23.03 24.96 -14.41c2.8,-1.63 4.78,-4.94 6.33,-8.61z"/>
  <path class="fil1" d="M75.72 28.79c0.49,0.88 0.76,1.9 0.76,2.98 0,3.41 -2.76,6.17 -6.17,6.17 -3.41,0 -6.17,-2.76 -6.17,-6.17 0,-1.08 0.28,-2.09 0.76,-2.98l5.41 -9.89 5.41 9.89z"/>
  <path class="fil0" d="M53.15 4.02c0,0 -7.83,-1.36 -10.48,-1.83 -5.63,-0.96 -8.39,-0.62 -13.26,2.09l-26.4 15.24c-2.83,1.69 -3.82,5.19 -2.31,8.03 4.96,8.84 10.03,17.62 15.21,26.34 1.71,2.74 5.35,3.74 8.18,2.13l26.42 -15.25c5.3,-3.09 6.73,-5.93 8.82,-11.86 0.91,-2.58 3.23,-8.61 3.23,-8.61l6.96 -4.02 -3.01 -5.21 -8.81 5.08c-2.28,6.42 -4.62,16.17 -10.55,19.61l-26.07 15.05 -15.05 -26.07 26.07 -15.05c6.27,-3.58 15.18,-0.68 22.22,0.62l8.81 -5.08 -3.01 -5.21 -6.96 4.02z"/>
 </g>
</svg>
