<svg xmlns="http://www.w3.org/2000/svg" xml:space="preserve" width="37.914" height="28.15" style="shape-rendering:geometricPrecision;text-rendering:geometricPrecision;image-rendering:optimizeQuality;fill-rule:evenodd;clip-rule:evenodd" viewBox="0 0 76.48 56.79"><defs><style>.fil0{fill:#fff}</style></defs><path class="fil0" d="M53.15 4.02s-7.83-1.36-10.48-1.83c-5.63-.96-8.39-.62-13.26 2.09L3.01 19.52C.18 21.21-.81 24.71.7 27.55c4.96 8.84 10.03 17.62 15.21 26.34 1.71 2.74 5.35 3.74 8.18 2.13l26.42-15.25c5.3-3.09 6.73-5.93 8.82-11.86.91-2.58 3.23-8.61 3.23-8.61l6.96-4.02-3.01-5.21-8.81 5.08c-2.28 6.42-4.62 16.17-10.55 19.61L21.08 50.81 6.03 24.74 32.1 9.69c6.27-3.58 15.18-.68 22.22.62l8.81-5.08L60.12.02l-6.96 4.02z"/><path d="m52.83 26.02-44.58-.01 13.29 23.03L46.5 34.63c2.8-1.63 4.78-4.94 6.33-8.61zm22.89 2.77c.49.88.76 1.9.76 2.98 0 3.41-2.76 6.17-6.17 6.17s-6.17-2.76-6.17-6.17c0-1.08.28-2.09.76-2.98l5.41-9.89 5.41 9.89z" style="fill:#FA6831"/><path class="fil0" d="M53.15 4.02s-7.83-1.36-10.48-1.83c-5.63-.96-8.39-.62-13.26 2.09L3.01 19.52C.18 21.21-.81 24.71.7 27.55c4.96 8.84 10.03 17.62 15.21 26.34 1.71 2.74 5.35 3.74 8.18 2.13l26.42-15.25c5.3-3.09 6.73-5.93 8.82-11.86.91-2.58 3.23-8.61 3.23-8.61l6.96-4.02-3.01-5.21-8.81 5.08c-2.28 6.42-4.62 16.17-10.55 19.61L21.08 50.81 6.03 24.74 32.1 9.69c6.27-3.58 15.18-.68 22.22.62l8.81-5.08L60.12.02l-6.96 4.02z"/></svg>