<svg xmlns="http://www.w3.org/2000/svg" viewBox="0 0 24 24">
  <path fill="#ef7f1a" d="M19.59 9.672a7.006 7.006 0 0 0-.2727-2.006.4848.4848 0 0 0-.2727-.2885c-.1927-.08-1.011.4497-1.139.1927h-.4339c-.09575-.04848-.3527-.3854-.4654-.3527-.2424.08.3527.7381.5297.8181.16-.1127.6424-.3527.7539-.03151.2085.606-.5612 1.284-.9466 1.637-.5781.5297-.4848-.3369-.8666-.6424-.2085-.16-.2085-.4982-.4169-.6254a2.393 2.393 0 0 1-.5297-.6254l-.01697.1297c-.06424.04848-.2242-.2085-.2424-.2424 0 .2242.3636.5781.4848.7539a8.677 8.677 0 0 0 .5612 1.011c.1285.1285.6581.6897.7866.6897l.6897-.3212c.4848.1127-1.155 2.44-1.316 2.728-.1285.2424.1127.8351.08 1.124-.01576.3212-.2885.4339-.5297.606-.2412.1721-.2085.5612-.4169.7066-.4012.2424-.6739 1.028-1.236 1.028-.16 0-.8666.2727-.9636 0a2.771 2.771 0 0 0-.2727-.5297c-.09575-.1927-.01576-.3854-.1285-.5454a2.862 2.862 0 0 1-.3854-.5139c0-.1127.09575-.4848.2085-.5454.177-.09575.03151-.3527.01576-.4982a.9696.9696 0 0 0-.4012-.6424c-.2885-.2242-.1442-.4012-.08-.7381 0-.16-.09575-.3527-.3054-.3054-.4339.1285-.3054-.3369-.606-.3212a2.909 2.909 0 0 0-.6254.2242c-.257.08-.5297-.06424-.7866-.09575a1.659 1.659 0 0 1-1.142-2.239c.03151-.1442-.08-.4169-.03151-.5297a3.03 3.03 0 0 1 .5781-.7709c.1127-.1127.2727-.08.4169-.177.2242-.1442.2242-.4169.4339-.5939a2.168 2.168 0 0 1 1.121-.2933c.2085-.03151 1.011-.2085 1.139-.04848 0 .03151.1442.4654-.01576.4339.3212.01576.8024.5781 1.108.4339.16-.06424.09575-.5612.4339-.3212a1.863 1.863 0 0 0 1.284.04848c.1127-.09575.177-.7066.03151-.7709.08.08-.4654.09575-.5139.08-.09575-.03151-.177.08-.3212.01576.09575.04848-.4982-.2727-.16-.5139l-.4169.08c-.09575.08.04849.1442-.09575.2085-.2242.1127-.4012-.4012-.4981-.4654s-.7709-.5297-.5781-.2242l.5939.5939c-.03151.01576-.16-.2242-.16-.04848.04848-.09575.01576.4497-.08.257v-.2085c0-.06424-.177-.1285-.2085-.177a2.545 2.545 0 0 0-.4848-.4497 4.458 4.458 0 0 0-.6254.08l-.1442.2424a1.997 1.997 0 0 0-.3212.16l-.1127.2727a4.651 4.651 0 0 1-.5806.2254c.01576-.06424-.3636-.1285-.3527-.2424a2.28 2.28 0 0 0 .1285-.6581c-.03151-.1442.8181.2085.8666-.177.01576-.177.03151-.3636-.2424-.4012a2.474 2.474 0 0 0 .606-.2727.9854.9854 0 0 1 .5454-.3369c.2085 0 .16-.3212.2727-.4654.09575.03151-.04848.2885.06424.3854 0-.08.3369.04848.3636.03151.08-.04848.5139-.01576.4497-.2242-.06424-.2085.03151-.1442.1442-.1927-.01576 0 .257-.4654.3054-.3212-.03151-.16-.3212.06424-.4169.04848-.2242-.01576-.1285-.4012-.04848-.5139.08-.1127-.1927-.1927-.1927-.03151 0 .257-.2424.4848-.177.8024.08.4982-.5612-.1285-.606-.08-.2085.1285-.3854-.16-.2727-.3369.1127-.177.3854-.177.4982-.3636a2.303 2.303 0 0 1 .3006-.406c.4012-.3369.5139-.06424.9309-.03151.4169.03272.1285.09575.07999.2424-.04848.1467.2242.1927.3054.08a1.854 1.854 0 0 0 .2254-.3769c.06424-.16.6897-.1442.257-.4012a6.632 6.632 0 0 0-2.36-.5078c-.177 0-.3054.1927-.4497.3212-.2727.2242-.9624.6581-1.347.5297-.3842-.1285-1.236.4982-1.381.5139-.04848 0 0-.4848.2727-.5139-.1127.01576.9466-.5297.9151-.6581a4.874 4.874 0 0 0-2.04.7866c.04848.06424.2242.06424-.01576.2242-.1442.08-.2885.606-.4169.606-.3854.16-.4012-.3369-.8351.3054l-.6739.2727a7.619 7.619 0 0 0-1.959 3.952c-.01576.06424.257.177.2885.2085.08.09575.08.5454.1285.6897a4.418 4.418 0 0 0 .5612.8993 1.864 1.864 0 0 1 .257.8993c.08-.1285.8181.6254.9466.7709.3212.3636.5612.8181.04848 1.188-.16.1127.257.8484.03151 1.044l-.2727.06424c-.2727.16-.1442.5781.01576.7539a7.606 7.606 0 0 0 13.1-5.265zm-4.783-4.097c0-.1127-.1442-.2085-.2885-.01576-.09575.1285-.08.3369-.1442.4169-.08.1285.4339.257.4339.1285.01576-.2085.5612-.04848.6581-.01576.1927.04848.4848-.177.16-.2885-.2727-.09575-.4169-.2085-.4339-.4012 0 0 .1442-.1285.08-.1285-.16.01576-.4654.5939-.4654.3054zm-1.939 1.172c-.03151-.04848.257-.08.3054-.08.04848 0-.1479.3406-.3091.08363zm-2.025-1.922c.09575-.04848.2242-.04848.2424-.16l.06424-.08c.03151-.03151-.04848-.1127-.08-.1127l-.1127.08-.04848.01576-.04848.06424v.03151l-.06424.08c-.06424.06424 0 .1127.06424.08zm.3854-.4169.08-.01576-.03272.09212a.2836.2836 0 0 1 0 .257l-.1127.06424c-.04848.04848.1927.06424.1927.06424.01576.03151-.2885.06424-.2242.1285.08.09575.6254-.1442.5454-.1285.177-.08.01576-.09575-.08-.1442a1.212 1.212 0 0 0-.16-.5139l.06424-.08c-.16-.2242-.2727.2727-.2727.2727z"/>
  <path fill="#585858" d="M7.41 20.17H3.734V22H7.41zM8.3251 22v-1.83h2.76v-1.83h1.83v1.83h2.76V22h-7.335zm8.266-1.83V22h3.675v-1.83z"/>
</svg>