<svg xmlns="http://www.w3.org/2000/svg" xml:space="preserve" width="50" height="37.5" style="shape-rendering:geometricPrecision;text-rendering:geometricPrecision;image-rendering:optimizeQuality;fill-rule:evenodd;clip-rule:evenodd" viewBox="0 0 1028.03 771.02"><defs><style>.fil0{fill:#000}</style></defs><path class="fil0" d="M1028.03 514.01c0 93.56-25.09 181.33-68.97 256.96L884.7 728c36.46-63.01 57.65-135.96 57.65-214.01 0-236.57-191.76-428.33-428.34-428.33-236.57 0-428.33 191.76-428.33 428.33 0 78.05 21.21 151 57.65 214.01l-74.36 42.97C25.11 695.32 0 607.55 0 514.01 0 230.59 230.59 0 514.01 0c283.43 0 514.02 230.59 514.02 514.01z"/><path class="fil0" d="M514.01 771.02c-55.43 0-100.35-44.92-100.35-100.35 0-37.82 20.95-70.76 51.82-87.86l48.53-240.14 48.54 240.08c30.92 17.1 51.82 50.03 51.82 87.86 0 55.47-44.92 100.41-100.36 100.41z"/><path d="M541.77 156.87c-9.37-.78-18.71-1.11-27.8-1.11-9.08 0-18.46.39-27.84 1.11v119.25c9.26-1.06 18.59-1.63 27.84-1.63 9.26 0 18.59.51 27.8 1.63V156.87zM789.83 287.9a377.261 377.261 0 0 0-39.32-40.99l-80.97 84.35c14.52 12.08 27.72 25.87 39.32 40.99l80.97-84.35zm-111.41-91.23c-16.58-8.77-33.84-16.23-51.4-22.22l-43.86 110.22a241.184 241.184 0 0 1 51.4 22.22l43.86-110.22zM274.31 462.24c5.18-18.63 12.33-36.59 21.34-53.54l-105.77-45.65a384.14 384.14 0 0 0-21.34 53.53l105.77 45.65zm118.18-154.9a241.364 241.364 0 0 1 51.32-22.41l-44.29-110.04c-17.56 6.08-34.77 13.61-51.32 22.44l44.29 110.01zm-73.46 64.9a254.003 254.003 0 0 1 39.38-40.99l-80.97-84.35c-14.05 12.6-27.28 26.34-39.32 40.99l80.91 84.35zm538.56 38.68c-6.04-18.29-13.45-36.15-22.1-53.2l-105.12 47.37a265.315 265.315 0 0 1 22.15 53.2l105.07-47.37z" style="fill:#FA6831"/></svg>