<svg xmlns="http://www.w3.org/2000/svg" viewBox="0 0 24 24"><path fill="#fff" d="M11.996 14.11c-2.549 0-6.413-.448-8.451-1.902v3.17c2.038 1.466 5.915 1.9 8.45 1.9s6.413-.435 8.451-1.9v-3.17c-2.051 1.467-5.928 1.902-8.45 1.902zm0-12.11C7.472 2 3.545 3.256 3.545 4.809s3.939 2.808 8.45 2.808 8.451-1.256 8.451-2.808S16.504 2 11.996 2z"/><path fill="#fff" d="M20.457 16.985v2.075c0 1.628-3.939 2.94-8.45 2.94s-8.451-1.317-8.451-2.94v-2.075c2.05 1.467 5.927 1.901 8.45 1.901 2.549 0 6.414-.442 8.451-1.901z"/><path fill="#FA6831" d="M11.996 9.312c-2.549 0-6.413-.452-8.451-1.906v3.169c2.038 1.466 5.915 1.901 8.45 1.901s6.413-.435 8.451-1.901v-3.17c-2.051 1.47-5.928 1.907-8.45 1.907z"/></svg>