<svg xmlns="http://www.w3.org/2000/svg" width="32" height="32" fill-rule="evenodd" clip-rule="evenodd" image-rendering="optimizeQuality" shape-rendering="geometricPrecision" text-rendering="geometricPrecision" viewBox="0 0 307.69 307.69"><path fill="#ffffff" d="M77.12 230.71l153.72 0c42.44,-0 76.86,-34.42 76.86,-76.87 0,-42.44 -34.42,-76.86 -76.86,-76.86l-154.21 0c-42.35,0.13 -76.61,34.51 -76.61,76.86 0,42.44 34.42,76.86 76.86,76.86 0.08,0 0.18,0 0.25,0l0 0zm0 -26.77c27.67,0 50.09,-22.43 50.09,-50.09 0,-27.67 -22.43,-50.09 -50.09,-50.09 -27.66,0 -50.09,22.43 -50.09,50.09 0,27.66 22.43,50.09 50.09,50.09z"></path></svg>