<svg xmlns="http://www.w3.org/2000/svg" xml:space="preserve" width="12.989" height="23.985" style="shape-rendering:geometricPrecision;text-rendering:geometricPrecision;image-rendering:optimizeQuality;fill-rule:evenodd;clip-rule:evenodd" viewBox="0 0 14.61 26.97"><path d="M11.24 19.67a3.93 3.93 0 0 1-7.86 0c0-1.29.68-2.35 1.57-3.13 1.13-.99 1.81-1.95 1.81-3.62v-.56h1.13v.56c0 1.67.66 2.63 1.81 3.62.89.78 1.57 1.84 1.57 3.13h-.02z" style="fill:#FA6831"/><path d="M11.24 3.93v8.45c0 .66.3 1.29.8 1.72a7.276 7.276 0 0 1 2.57 5.57c0 4.03-3.27 7.3-7.3 7.3-4.03 0-7.3-3.27-7.3-7.3 0-2.23 1.01-4.23 2.57-5.57.5-.43.8-1.06.8-1.72V3.93a3.93 3.93 0 0 1 7.86 0zm-5.62 0v8.45c0 1.76-.57 2.57-1.58 3.43a5.075 5.075 0 0 0-1.79 3.84c0 2.78 2.28 5.06 5.06 5.06s5.06-2.28 5.06-5.06c0-1.48-.64-2.89-1.79-3.84C9.57 14.96 9 14.14 9 12.38V3.93c0-.92-.77-1.69-1.69-1.69-.92 0-1.69.77-1.69 1.69z" style="fill:#fff"/></svg>