<?xml version="1.0" encoding="UTF-8"?>
<!DOCTYPE svg PUBLIC "-//W3C//DTD SVG 1.1//EN" "http://www.w3.org/Graphics/SVG/1.1/DTD/svg11.dtd">
<!-- Creator: CorelDRAW 2017 -->
<svg xmlns="http://www.w3.org/2000/svg" xml:space="preserve" width="3.4368mm" height="6.346mm" version="1.1" style="shape-rendering:geometricPrecision; text-rendering:geometricPrecision; image-rendering:optimizeQuality; fill-rule:evenodd; clip-rule:evenodd"
viewBox="0 0 14.61 26.97"
 xmlns:xlink="http://www.w3.org/1999/xlink">
 <defs>
  <style type="text/css">
   <![CDATA[
    .fil0 {fill:#EF7F1A}
    .fil1 {fill:white}
   ]]>
  </style>
 </defs>
 <g>
  <path class="fil0" d="M11.24 19.67c0,2.17 -1.76,3.93 -3.93,3.93 -2.17,0 -3.93,-1.76 -3.93,-3.93 0,-1.29 0.68,-2.35 1.57,-3.13 1.13,-0.99 1.81,-1.95 1.81,-3.62l0 -0.56 1.13 0 0 0.56c0,1.67 0.66,2.63 1.81,3.62 0.89,0.78 1.57,1.84 1.57,3.13l-0.02 0z"/>
  <path class="fil1" d="M11.24 3.93l0 8.45c0,0.66 0.3,1.29 0.8,1.72 1.58,1.34 2.57,3.34 2.57,5.57 0,4.03 -3.27,7.3 -7.3,7.3 -4.03,0 -7.3,-3.27 -7.3,-7.3 0,-2.23 1.01,-4.23 2.57,-5.57 0.5,-0.43 0.8,-1.06 0.8,-1.72l0 -8.45c0,-2.17 1.76,-3.93 3.93,-3.93 2.17,0 3.93,1.76 3.93,3.93l0 0zm-5.62 0l0 8.45c0,1.76 -0.57,2.57 -1.58,3.43 -1.13,0.97 -1.79,2.37 -1.79,3.84 0,2.78 2.28,5.06 5.06,5.06 2.78,0 5.06,-2.28 5.06,-5.06 0,-1.48 -0.64,-2.89 -1.79,-3.84 -1.01,-0.85 -1.58,-1.67 -1.58,-3.43l0 -8.45c0,-0.92 -0.77,-1.69 -1.69,-1.69 -0.92,0 -1.69,0.77 -1.69,1.69l0 0z"/>
 </g>
</svg>
