<?xml version="1.0" encoding="UTF-8"?>
<!DOCTYPE svg PUBLIC "-//W3C//DTD SVG 1.1//EN" "http://www.w3.org/Graphics/SVG/1.1/DTD/svg11.dtd">
<!-- Creator: CorelDRAW 2017 -->
<svg xmlns="http://www.w3.org/2000/svg" xml:space="preserve" width="10mm" height="10mm" version="1.1" style="shape-rendering:geometricPrecision; text-rendering:geometricPrecision; image-rendering:optimizeQuality; fill-rule:evenodd; clip-rule:evenodd"
viewBox="0 0 57.99 57.99"
 xmlns:xlink="http://www.w3.org/1999/xlink">
 <defs>
  <style type="text/css">
   <![CDATA[
    .fil0 {fill:#EC691F}
    .fil1 {fill:white}
   ]]>
  </style>
 </defs>
 <g>
  <polygon class="fil0" points="31.28,29 31.28,15.29 26.71,15.29 26.71,33.57 42.7,33.57 42.7,29 "/>
  <path class="fil1" d="M29 0c-16.01,0 -29,12.98 -29,29 0,16.01 12.98,29 29,29 16.01,0 29,-12.98 29,-29 0,-16.01 -12.98,-29 -29,-29zm0 4.83c13.32,0 24.16,10.84 24.16,24.16 0,13.32 -10.84,24.16 -24.16,24.16 -13.32,0 -24.16,-10.84 -24.16,-24.16 0,-13.32 10.84,-24.16 24.16,-24.16z"/>
 </g>
</svg>
