<?xml version="1.0" encoding="UTF-8"?>
<!DOCTYPE svg PUBLIC "-//W3C//DTD SVG 1.1//EN" "http://www.w3.org/Graphics/SVG/1.1/DTD/svg11.dtd">
<!-- Creator: CorelDRAW 2017 -->
<svg xmlns="http://www.w3.org/2000/svg" xml:space="preserve" width="4.2334mm" height="6.35mm" version="1.1" style="shape-rendering:geometricPrecision; text-rendering:geometricPrecision; image-rendering:optimizeQuality; fill-rule:evenodd; clip-rule:evenodd"
viewBox="0 0 18.99 28.48"
 xmlns:xlink="http://www.w3.org/1999/xlink">
 <defs>
  <style type="text/css">
   <![CDATA[
    .fil1 {fill:#EC691F}
    .fil0 {fill:white}
   ]]>
  </style>
 </defs>
 <g>
  <path class="fil0" d="M17.23 8.45c1.14,-1.36 1.76,-3.06 1.76,-4.79l0 -3.66 -18.99 0 0 3.66c0,1.73 0.63,3.43 1.76,4.79l3.66 4.37c0.67,0.8 0.68,1.93 0.01,2.74l-3.71 4.5c-1.11,1.35 -1.72,3.03 -1.72,4.74l0 3.69 18.99 0 0 -3.69c0,-1.71 -0.61,-3.39 -1.72,-4.74l-3.71 -4.5c-0.67,-0.81 -0.66,-1.93 0.01,-2.74l3.66 -4.37 -0 0zm-5.51 8.61l3.71 4.5c0.77,0.94 1.18,2.95 1.18,4.26l-14.24 0c0,-1.31 0.41,-3.32 1.18,-4.25l3.71 -4.5c1.39,-1.68 1.38,-4.11 -0.02,-5.77l-3.66 -4.37c-0.78,-0.93 -1.21,-2.96 -1.21,-4.26l14.24 -0c0,1.31 -0.43,3.33 -1.21,4.26l-3.66 4.37c-1.4,1.67 -1.41,4.1 -0.02,5.77z"/>
  <path class="fil1" d="M5.61 9.34l7.78 -0.02 -1.65 1.97c-0.69,0.83 -1.05,1.85 -1.05,2.86l-2.39 0c-0.01,-1.02 -0.36,-2.03 -1.05,-2.86l-1.63 -1.95z"/>
 </g>
</svg>
