<svg xmlns="http://www.w3.org/2000/svg" xml:space="preserve" width="16" height="24" style="shape-rendering:geometricPrecision;text-rendering:geometricPrecision;image-rendering:optimizeQuality;fill-rule:evenodd;clip-rule:evenodd" viewBox="0 0 18.99 28.48"><path d="M17.23 8.45a7.472 7.472 0 0 0 1.76-4.79V0H0v3.66c0 1.73.63 3.43 1.76 4.79l3.66 4.37c.67.8.68 1.93.01 2.74l-3.71 4.5A7.486 7.486 0 0 0 0 24.8v3.69h18.99V24.8c0-1.71-.61-3.39-1.72-4.74l-3.71-4.5c-.67-.81-.66-1.93.01-2.74l3.66-4.37zm-5.51 8.61 3.71 4.5c.77.94 1.18 2.95 1.18 4.26H2.37c0-1.31.41-3.32 1.18-4.25l3.71-4.5a4.5 4.5 0 0 0-.02-5.77L3.58 6.93C2.8 6 2.37 3.97 2.37 2.67h14.24c0 1.31-.43 3.33-1.21 4.26l-3.66 4.37a4.5 4.5 0 0 0-.02 5.77z" style="fill:#fff"/><path d="m5.61 9.34 7.78-.02-1.65 1.97c-.69.83-1.05 1.85-1.05 2.86H8.3a4.527 4.527 0 0 0-1.05-2.86L5.62 9.34z" style="fill:#FA6831"/></svg>