<?xml version="1.0" encoding="UTF-8"?>
<!DOCTYPE svg PUBLIC "-//W3C//DTD SVG 1.1//EN" "http://www.w3.org/Graphics/SVG/1.1/DTD/svg11.dtd">
<!-- Creator: CorelDRAW 2017 -->
<svg xmlns="http://www.w3.org/2000/svg" xml:space="preserve" width="104.907mm" height="12.9852mm" version="1.1" style="shape-rendering:geometricPrecision; text-rendering:geometricPrecision; image-rendering:optimizeQuality; fill-rule:evenodd; clip-rule:evenodd"
viewBox="0 0 20756.17 2569.15"
 xmlns:xlink="http://www.w3.org/1999/xlink">
 <defs>
  <style type="text/css">
   <![CDATA[
    .fil0 {fill:#FEFEFE}
    .fil1 {fill:#2B2A29;fill-rule:nonzero}
   ]]>
  </style>
 </defs>
 <g id="Layer_x0020_1">
  <metadata id="CorelCorpID_0Corel-Layer"/>
  <rect class="fil0" width="8422.86" height="2569.15"/>
  <path class="fil1" d="M846.2 809.53l282.1 0c128.64,0 225.69,58.66 225.69,212.14 0,146.69 -92.52,200.86 -225.69,200.86l-282.1 0 0 -413zm-419.78 1275.12l419.78 0 0 -537.13 345.29 0c354.33,0 582.28,-155.73 582.28,-555.19 0,-381.4 -282.12,-519.09 -582.28,-519.09l-765.08 0 0 1611.41z"/>
  <path id="_1" class="fil1" d="M2321.05 809.53l334.01 0c117.37,0 212.14,54.15 212.14,173.77 0,124.13 -67.71,189.58 -194.07,189.58l-352.08 0 0 -363.36zm-419.78 1275.12l419.78 0 0 -586.79 318.23 0c198.6,0 223.41,167.01 234.71,329.5 6.77,47.41 11.28,200.86 47.39,257.29l415.27 0c-56.43,-63.19 -60.94,-293.4 -67.71,-363.36 -11.3,-153.47 -65.45,-343.04 -234.73,-385.93l0 -4.51c171.54,-65.45 252.78,-230.2 252.78,-403.98 0,-324.99 -282.1,-453.64 -564.22,-453.64l-821.5 0 0 1611.41z"/>
  <path id="_2" class="fil1" d="M4852.13 473.24l-419.76 0 0 970.47c0,207.63 -74.49,313.7 -282.12,313.7 -207.63,0 -282.1,-106.07 -282.1,-313.7l0 -970.47 -419.78 0 0 945.64c0,467.17 214.39,699.63 701.88,699.63 487.49,0 701.88,-232.46 701.88,-699.63l0 -945.64z"/>
  <path id="_3" class="fil1" d="M4968.35 1543.01c0,413 331.76,575.49 699.63,575.49 354.31,0 701.88,-130.9 701.88,-539.39 0,-291.14 -234.71,-399.46 -467.17,-464.91 -234.71,-65.45 -467.17,-85.77 -467.17,-212.16 0,-106.07 112.84,-137.67 203.12,-137.67 126.39,0 266.31,49.66 259.54,194.09l419.76 0c0,-361.1 -327.25,-519.09 -645.45,-519.09 -302.42,0 -656.75,137.69 -656.75,489.74 0,297.91 243.73,399.46 471.68,464.91 232.46,65.45 462.66,90.28 462.66,234.71 0,119.62 -130.9,164.75 -257.29,164.75 -180.54,0 -295.65,-60.94 -304.65,-250.5l-419.76 0 -0.02 0z"/>
  <path id="_4" class="fil1" d="M6330.35 2084.65l431.06 0 101.56 -288.88 561.96 0 99.3 288.88 437.85 0 -602.6 -1611.41 -426.53 0 -602.6 1611.41zm812.48 -1164.54l4.51 0 178.28 564.22 -365.61 0 182.82 -564.22z"/>
  <rect class="fil0" x="8768.38" width="11987.78" height="2569.15"/>
  <path class="fil1" d="M10783.77 1048.76c-11.28,-388.17 -385.91,-609.37 -735.73,-609.37 -489.74,0 -803.44,372.4 -803.44,839.57 0,467.17 313.7,839.55 803.44,839.55 408.49,0 710.9,-241.46 735.73,-659.01l-419.76 0c-15.81,187.33 -126.39,297.91 -324.99,297.91 -270.82,0 -374.63,-236.97 -374.63,-478.45 0,-241.48 103.81,-478.47 374.63,-478.47 178.28,0 300.16,85.77 324.99,248.27l419.76 0z"/>
  <path id="_1_0" class="fil1" d="M11294.96 1278.94c0,-241.48 103.81,-478.47 374.63,-478.47 270.84,0 374.65,236.97 374.65,478.47 0,241.46 -103.81,478.45 -374.65,478.45 -270.82,0 -374.63,-236.97 -374.63,-478.45zm-419.76 0c0,467.17 288.86,839.55 794.4,839.55 505.55,0 794.42,-372.38 794.42,-839.55 0,-467.17 -288.86,-839.57 -794.42,-839.57 -505.53,0 -794.4,372.4 -794.4,839.57z"/>
  <polygon id="_2_1" class="fil1" points="12616.36,2084.65 13011.31,2084.65 13011.31,1080.35 13015.82,1080.35 13575.53,2084.65 14006.57,2084.65 14006.57,473.24 13611.61,473.24 13611.61,1466.26 13607.1,1466.26 13047.42,473.24 12616.36,473.24 "/>
  <polygon id="_3_2" class="fil1" points="14217.58,2084.65 14612.55,2084.65 14612.55,1080.35 14617.04,1080.35 15176.77,2084.65 15607.81,2084.65 15607.81,473.24 15212.87,473.24 15212.87,1466.26 15208.34,1466.26 14648.66,473.24 14217.58,473.24 "/>
  <polygon id="_4_3" class="fil1" points="15823.35,2084.65 17130.08,2084.65 17130.08,1723.55 16243.13,1723.55 16243.13,1416.62 17033.02,1416.62 17033.02,1091.63 16243.13,1091.63 16243.13,809.53 17107.51,809.53 17107.51,473.24 15823.35,473.24 "/>
  <path id="_5" class="fil1" d="M18787.75 1048.76c-11.28,-388.17 -385.91,-609.37 -735.73,-609.37 -489.74,0 -803.44,372.4 -803.44,839.57 0,467.17 313.7,839.55 803.44,839.55 408.49,0 710.9,-241.46 735.73,-659.01l-419.76 0c-15.81,187.33 -126.39,297.91 -324.99,297.91 -270.82,0 -374.63,-236.97 -374.63,-478.45 0,-241.48 103.81,-478.47 374.63,-478.47 178.28,0 300.16,85.77 324.99,248.27l419.76 0z"/>
  <polygon id="_6" class="fil1" points="20217.47,473.24 18836.26,473.24 18836.26,834.34 19316.99,834.34 19316.99,2084.65 19736.75,2084.65 19736.75,834.34 20217.47,834.34 "/>
 </g>
</svg>
